HIERARCHY
ROOT Hips
{
	OFFSET 0.00000 0.00000 0.00000
	CHANNELS 6 Xposition Yposition Zposition Zrotation Yrotation Xrotation 
	JOINT LHipJoint
	{
		OFFSET 0 0 0
		CHANNELS 3 Zrotation Yrotation Xrotation
		JOINT LeftUpLeg
		{
			OFFSET 1.62964 -1.40469 0.78906
			CHANNELS 3 Zrotation Yrotation Xrotation
			JOINT LeftLeg
			{
				OFFSET 2.29640 -6.30932 0.00000
				CHANNELS 3 Zrotation Yrotation Xrotation
				JOINT LeftFoot
				{
					OFFSET 2.29451 -6.30412 0.00000
					CHANNELS 3 Zrotation Yrotation Xrotation
					JOINT LeftToeBase
					{
						OFFSET 0.03611 -0.09921 1.56387
						CHANNELS 3 Zrotation Yrotation Xrotation
						End Site
						{
							OFFSET 0.00000 -0.00000 0.80291
						}
					}
				}
			}
		}
	}
	JOINT RHipJoint
	{
		OFFSET 0 0 0
		CHANNELS 3 Zrotation Yrotation Xrotation
		JOINT RightUpLeg
		{
			OFFSET -1.73712 -1.40469 0.78906
			CHANNELS 3 Zrotation Yrotation Xrotation
			JOINT RightLeg
			{
				OFFSET -2.28137 -6.26801 0.00000
				CHANNELS 3 Zrotation Yrotation Xrotation
				JOINT RightFoot
				{
					OFFSET -2.28681 -6.28298 0.00000
					CHANNELS 3 Zrotation Yrotation Xrotation
					JOINT RightToeBase
					{
						OFFSET -0.15927 -0.43759 1.61103
						CHANNELS 3 Zrotation Yrotation Xrotation
						End Site
						{
							OFFSET -0.00000 -0.00000 0.84630
						}
					}
				}
			}
		}
	}
	JOINT LowerBack
	{
		OFFSET 0 0 0
		CHANNELS 3 Zrotation Yrotation Xrotation
		JOINT Spine
		{
			OFFSET -0.04227 2.04338 -0.00225
			CHANNELS 3 Zrotation Yrotation Xrotation
			JOINT Spine1
			{
				OFFSET -0.02148 2.04482 -0.04273
				CHANNELS 3 Zrotation Yrotation Xrotation
				JOINT Neck
				{
					OFFSET 0 0 0
					CHANNELS 3 Zrotation Yrotation Xrotation
					JOINT Neck1
					{
						OFFSET 0.09180 1.44629 0.19359
						CHANNELS 3 Zrotation Yrotation Xrotation
						JOINT Head
						{
							OFFSET 0.00887 1.40645 0.14750
							CHANNELS 3 Zrotation Yrotation Xrotation
							End Site
							{
								OFFSET -0.00669 1.50671 0.03707
							}
						}
					}
				}
				JOINT LeftShoulder
				{
					OFFSET 0 0 0
					CHANNELS 3 Zrotation Yrotation Xrotation
					JOINT LeftArm
					{
						OFFSET 2.17674 1.86763 -0.06520
						CHANNELS 3 Zrotation Yrotation Xrotation
						JOINT LeftForeArm
						{
							OFFSET 4.65776 -0.00000 0.00000
							CHANNELS 3 Zrotation Yrotation Xrotation
							JOINT LeftHand
							{
								OFFSET 3.55539 -0.00000 0.00000
								CHANNELS 3 Zrotation Yrotation Xrotation
								JOINT LeftFingerBase
								{
									OFFSET 0 0 0
									CHANNELS 3 Zrotation Yrotation Xrotation
									JOINT LeftHandIndex1
									{
										OFFSET 0.70726 -0.00000 0.00000
										CHANNELS 3 Zrotation Yrotation Xrotation
										End Site
										{
											OFFSET 0.57022 -0.00000 0.00000
										}
									}
								}
								JOINT LThumb
								{
									OFFSET 0 0 0
									CHANNELS 3 Zrotation Yrotation Xrotation
									End Site
									{
										OFFSET 0.57892 -0.00000 0.57892
									}
								}
							}
						}
					}
				}
				JOINT RightShoulder
				{
					OFFSET 0 0 0
					CHANNELS 3 Zrotation Yrotation Xrotation
					JOINT RightArm
					{
						OFFSET -2.80694 1.55459 -0.32496
						CHANNELS 3 Zrotation Yrotation Xrotation
						JOINT RightForeArm
						{
							OFFSET -4.71925 -0.00000 -0.00000
							CHANNELS 3 Zrotation Yrotation Xrotation
							JOINT RightHand
							{
								OFFSET -3.56990 -0.00000 0.00000
								CHANNELS 3 Zrotation Yrotation Xrotation
								JOINT RightFingerBase
								{
									OFFSET 0 0 0
									CHANNELS 3 Zrotation Yrotation Xrotation
									JOINT RightHandIndex1
									{
										OFFSET -0.50776 -0.00000 0.00000
										CHANNELS 3 Zrotation Yrotation Xrotation
										End Site
										{
											OFFSET -0.40937 -0.00000 0.00000
										}
									}
								}
								JOINT RThumb
								{
									OFFSET 0 0 0
									CHANNELS 3 Zrotation Yrotation Xrotation
									End Site
									{
										OFFSET -0.41562 -0.00000 0.41562
									}
								}
							}
						}
					}
				}
			}
		}
	}
}
MOTION
Frames: 8
Frame Time: 0.25
0.00 0.00 0.00 0 0 0 0 0 0 -21 0 0 0 0 0 0 0 0 0 0 0 0 0 0 21 0 0 0 0 0 0 0 0 0 0 0 0 0 0 0 0 0 0 0 0 0 0 -16 0 0 21 0 0 11 0 0 0 -8 0 0 0 0 0 0 0 0 0 0 0 0 0 0 0 0 0 0 0 0 8 0 0 0 0 0 0 0 0 0 0 0 0 0 0 0 0 0
0.00 0.00 0.00 176.7410 -4.3680 -154.9810 0.0000 0.0000 0.0000 -17.0201 -24.3656 -28.2157 1.6486 8.0921 22.9943 0.2975 -0.6065 -10.1056 7.0948 -15.4112 -49.2318 0.0000 0.0000 0.0000 19.2823 11.7115 -23.0395 -0.2348 -3.1186 8.6091 -0.9005 5.1280 -16.9452 -0.0201 0.9151 -2.5153 -7.5565 -0.9718 -27.3768 -0.9389 0.8146 -0.2179 3.3693 -0.3033 14.2479 -1.9674 -0.0830 -4.1958 4.9248 -1.9252 19.0762 1.7243 -1.1239 6.5352 0.0000 0.0000 0.0000 -83.9332 -3.3448 24.5964 11.9784 -19.7722 -2.0950 -0.0000 -0.0000 2.0841 23.5313 -10.8671 -4.6934 -7.1250 0.0000 -0.0000 -2.5008 18.1604 1.5983 0.0000 0.0000 0.0000 90.9715 -2.7046 9.0197 -16.4259 26.0947 -3.8314 0.0000 -0.0000 -0.7445 -16.8192 -49.7566 12.9927 7.1250 -0.0000 -0.0000 -10.8928 10.4320 -171.0929
0.00 0.00 0.00 176.7750 -7.0329 -155.4910 0.0000 0.0000 0.0000 -14.5075 -27.0640 -37.9489 4.6301 12.9547 39.1992 0.2977 -3.4188 -9.6983 7.4616 -15.7086 -50.5994 0.0000 0.0000 0.0000 20.0065 10.4302 -23.3048 -0.2376 -3.1371 8.6607 -0.8916 4.1650 -16.9290 -0.0016 -0.2614 0.7182 -6.4334 -0.4981 -24.5156 -0.8854 1.0553 0.2402 3.0297 -0.0532 13.9990 -1.8272 -0.0697 -4.0259 4.8321 -2.0474 19.9910 1.6640 -1.2045 6.8016 0.0000 -0.0000 0.0000 -84.3764 -3.5337 24.9917 12.3253 -20.2908 -2.2138 -0.0000 -0.0000 2.4436 23.5981 -10.1417 -4.3986 -7.1250 0.0000 -0.0000 -2.4236 18.9400 1.5071 0.0000 -0.0000 0.0000 89.9718 -2.5042 8.4224 -15.9473 25.4491 -3.6233 0.0000 0.0000 1.1792 -16.1275 -55.1936 13.3560 7.1250 -0.0000 -0.0000 -11.8694 5.5773 -169.0985
0.00 0.00 0.00 175.9200 -8.0297 -155.7180 0.0000 0.0000 0.0000 -13.5103 -27.2443 -48.1911 9.4746 17.1036 57.7174 0.6266 -2.9066 -14.2448 6.1008 -14.5253 -45.3849 0.0000 0.0000 0.0000 19.2145 9.6378 -23.6115 -0.2485 -3.2075 8.8571 -0.9071 3.3755 -17.1785 -0.0027 0.3379 -0.9283 -6.9971 -0.3596 -22.8830 -0.8674 1.3730 0.8795 3.4677 0.0795 13.7885 -2.1205 -0.2756 -3.7037 5.2926 -2.4472 20.1847 1.8357 -1.3969 6.8286 0.0000 -0.0000 0.0000 -84.6577 -3.0436 25.5019 12.2310 -20.1502 -2.1812 -0.0000 -0.0000 1.8270 23.8973 -11.9400 -5.2376 -7.1250 0.0000 -0.0000 -2.2955 16.9634 1.5271 0.0000 -0.0000 0.0000 88.9793 -2.1709 7.9179 -15.8454 25.3106 -3.5796 0.0000 0.0000 1.0588 -13.8431 -59.3851 11.9734 7.1250 -0.0000 -0.0000 -13.2324 2.2947 -166.9511
0.00 0.00 0.00 175.6500 -9.1057 -156.8850 0.0000 0.0000 0.0000 -11.2199 -26.4531 -57.7260 15.2888 19.4593 76.1052 1.0620 -1.2041 -19.1153 5.4094 -13.8306 -42.5629 0.0000 0.0000 0.0000 18.9357 10.8712 -21.6419 -0.2347 -3.1179 8.6072 -0.9302 0.6689 -18.0178 -0.0030 0.3540 -0.9726 -6.6278 -0.2226 -20.6891 -0.8996 1.3954 1.6697 3.1988 0.1498 13.4601 -2.2051 -0.2909 -3.5626 5.4660 -2.5631 20.5264 1.8991 -1.4585 6.9210 0.0000 -0.0000 0.0000 -84.2560 -2.2340 25.4110 12.0207 -19.8357 -2.1093 -0.0000 -0.0000 2.2369 22.8932 -11.9640 -5.0027 -7.1250 0.0000 -0.0000 -2.9961 17.0373 1.9895 0.0000 -0.0000 0.0000 88.7966 -1.8910 7.7518 -16.5129 26.2111 -3.8697 0.0000 0.0000 0.8945 -17.5235 -51.6418 13.9064 7.1250 -0.0000 -0.0000 -10.8344 8.4969 -170.7133
0.00 0.00 0.00 175.2030 0.1729 -150.4500 0.0000 0.0000 0.0000 -13.2401 -23.2460 -55.3687 6.6097 14.9942 47.3823 0.7884 -5.6106 -15.8252 4.7132 -13.0534 -39.5687 0.0000 0.0000 0.0000 0.9048 16.3206 -27.6625 -1.9301 -8.7189 24.9200 -0.0477 -8.3316 -12.7732 -0.9228 6.1202 -17.1336 -10.0168 -0.4203 -17.4950 -1.9448 1.7642 2.8490 3.9790 0.0974 12.8980 -0.3904 -0.9085 -3.8227 4.6740 -3.6084 20.6642 1.2548 -1.9053 7.0226 0.0000 0.0000 0.0000 -80.9591 -1.1505 26.7034 15.2000 -24.4240 -3.3082 -0.0000 -0.0000 0.8352 23.3815 -11.3195 -4.8506 -7.1250 0.0000 -0.0000 -2.6260 17.6852 1.7060 0.0000 0.0000 0.0000 87.1888 -4.5361 12.7115 -22.9505 34.0347 -7.1106 0.0000 -0.0000 -5.6382 -16.7505 -50.0643 12.9950 7.1250 -0.0000 -0.0000 -10.9603 10.1626 -170.9744
0.00 0.00 0.00 176.5290 1.0314 -150.9250 0.0000 0.0000 0.0000 -16.8980 -20.6214 -46.1198 3.7426 11.8098 35.0625 0.5091 -4.2291 -12.7009 4.2067 -12.4304 -37.2722 0.0000 0.0000 0.0000 4.8876 15.9457 -39.0318 -5.4462 -13.8694 42.7166 -1.0212 -5.7207 -21.9730 -1.7384 8.2986 -23.6247 -9.4185 -1.9051 -18.1332 -1.5511 -0.0262 2.7871 3.6064 -0.6028 13.4748 -0.4286 -2.7160 -4.0158 4.3099 -3.0392 21.9369 1.3264 -0.5497 7.4515 -0.0000 -0.0000 0.0000 -79.9537 -1.8625 26.6939 16.3888 -26.0450 -3.8151 -0.0000 -0.0000 0.5748 23.4855 -11.1833 -4.8171 -7.1250 0.0000 -0.0000 -2.5469 17.8226 1.6468 -0.0000 -0.0000 0.0000 88.3101 -7.8565 10.7500 -20.4357 31.1637 -5.7551 0.0000 -0.0000 -3.6259 -14.9268 -51.0289 11.7091 7.1250 -0.0000 -0.0000 -11.8515 9.7228 -170.1004
0.00 0.00 0.00 177.7330 3.4930 -152.9450 0.0000 0.0000 0.0000 -21.9342 -16.5233 -31.4632 1.0914 6.6392 18.6509 0.3599 -0.6113 -11.1340 5.6057 -14.0351 -43.3781 0.0000 0.0000 0.0000 9.6268 25.8227 -37.0542 -2.8616 -10.4676 30.5046 -1.8780 2.5174 -25.2513 -2.0871 9.0452 -25.9367 -8.7810 -3.2897 -22.2235 -1.3852 -1.5653 1.9908 2.8895 -1.2698 15.1359 -0.3296 -2.1961 -3.7140 4.0864 -2.0749 23.9756 1.3460 0.0307 8.0477 -0.0000 0.0000 0.0000 -80.3812 -1.8755 26.3979 18.4387 -28.7152 -4.7581 -0.0000 0.0000 -4.1678 23.9531 -10.7473 -4.7357 -7.1250 0.0000 -0.0000 -2.1984 18.2516 1.4003 -0.0000 0.0000 0.0000 90.1816 -10.7778 1.8280 -15.3422 24.6207 -3.3672 0.0000 0.0000 2.9395 -17.1706 -52.5305 13.7791 7.1250 -0.0000 -0.0000 -11.0996 7.7645 -170.3134
